<?xml version="1.0" standalone="no"?>
<!DOCTYPE svg PUBLIC "-//W3C//DTD SVG 20010904//EN"
 "http://www.w3.org/TR/2001/REC-SVG-20010904/DTD/svg10.dtd">
<svg version="1.0" xmlns="http://www.w3.org/2000/svg"
 width="200.000000pt" height="197.000000pt" viewBox="0 0 200.000000 197.000000"
 preserveAspectRatio="xMidYMid meet">
<g transform="translate(0.000000,197.000000) scale(0.100000,-0.100000)"
fill="#000000" stroke="none">
<path d="M679 1676 c-345 -202 -388 -230 -406 -266 -9 -18 -13 -89 -13 -242 0
-120 2 -218 4 -218 2 0 151 87 331 194 308 182 328 196 340 230 18 51 41 74
86 86 77 21 149 -36 149 -117 0 -83 -56 -130 -142 -119 -47 7 -49 6 -255 -117
-115 -67 -277 -163 -360 -212 l-153 -90 0 -98c0 -54 3 -96 8 -94 12 7 1076
629 1100 644 12 7 22 20 22 29 0 28 30 74 60 89 109 56 221 -56 165 -165 -22
-43 -68 -63 -129 -57 -47 4 -57 1 -121 -38 -38 -23 -279 -165 -535 -315 -256
-150 -473 -279 -483 -285 -16 -11 -9 -18 63 -60 71 -42 84 -46 106 -37 13 7
113 64 222 128 108 65 259 154 335 198 117 68 139 85 144 109 8 38 57 85 97
92 76 15 152 -53 142 -128 -9 -81 -76 -129 -151 -109 -38 10 -43 8 -135 -48
-52 -32 -196 -117 -320 -190 -124 -73 -226 -133 -228 -135 -3 -2 304 -183 357
-210 21 -11 46 -15 66 -12 37 6 675 376 718 415 15 14 32 43 38 64 6 24 9 179
7 416 -4 448 5 417 -135 498 -48 28 -182 106 -298 174 -296 175 -306 180 -346
180 -28 0 -99 -37 -350 -184z"/>
</g>
</svg>
